<?xml version="1.0" encoding="utf-8"?>
<!-- Generator: Adobe Illustrator 19.1.0, SVG Export Plug-In . SVG Version: 6.00 Build 0)  -->
<svg version="1.2" baseProfile="tiny" xmlns="http://www.w3.org/2000/svg" xmlns:xlink="http://www.w3.org/1999/xlink" x="0px"
	 y="0px" viewBox="248 27 329 540" xml:space="preserve">
<g display="none">
	<rect x="60" y="27" display="inline" fill="#DDDDDD" width="720" height="540"/>
</g>
<g>
	<path fill="#FFFFFF" d="M414.2,442.5l-0.9-0.4l-0.1-0.1l-0.5-0.3l-0.3,0.2l-0.3,0.1l-0.4,0l-0.4-0.2l0.3,1l0.7,0.7l0.9,0.5l1.1,0.2
		l0.9-0.3l-0.3-0.7L414.2,442.5z M412,416.9l0.3-0.4l0-0.5l-0.1-0.1l-0.8-0.6l-0.2-0.1l-0.3,0l-0.4,0.2l-1.1,1l-0.2,0.1l-0.3,0.1
		l-2.5-1.1l-0.6-0.1l-1.2,0.1l-0.5-0.1l-1.6-0.8l-0.8,0l-0.2,0l-0.2,0.1l-0.3,0.2l-0.2,0.2l0.2,0.1l0.5,0.1l0.4,0.3l0.3,0.4l0.3,0.4
		l-0.4,0.9l0.7,0.7l1.2,0.4l1,0.1l6.4-1.3L412,416.9z M426.9,434.8L426.9,434.8l-0.2,0.1l-0.3,0.1l-0.1,0.1l0.1,0.1l0.1,0.3l0.1,0.2
		v0l0,0l0.3-0.6L426.9,434.8L426.9,434.8z M398,417.3l-0.3-0.8l0-0.9l-0.4,0.4l-0.5,0.2l-1.7,0.1l-0.3,0.1l-0.3,0.2l-0.4,0.2l-0.6,0
		l-1.2-0.2l-0.5,0.2l0.5,0.5l0.7,0.8l0.6,0.8l0.2,0.6l0.3,0.4l0.6,0.4l0.7,0.3l0.5-0.1l0.3-0.2l0.3,0l0.3,0.1l0.5,0.1l0.3-0.1l1.5-1
		l0.4-0.4l0.2-0.5l0.1-0.8l-0.8,0.2L398,417.3z M389.8,415.7l-0.3-0.2l-0.3-0.1l-0.3-0.1l-0.2-0.2l-0.2-0.3l-0.3-0.3l-0.1,0.7
		l-0.4,0.2l-0.9,0.1l-0.5,0.4l-0.1,0.4l0.2,0.1l0.4-0.4l0.8,0.4l0.8,0.1l1.8,0L390,416L389.8,415.7z M416.4,416.9l-0.4-0.1l-0.2-0.1
		l-0.3-0.1l-0.3,0l-0.1,0.1l0.1,0.1l0.5,0.2l0.3,0l0.4,0.1l0.4-0.1l0-0.1L416.4,416.9z M568,406.3l0-0.5l-0.9-0.6l-0.3-0.4l-0.3-0.2
		l-0.5-0.3l-2.4-1.8l-0.4-0.5L563,402l-0.6-0.4l-0.1-0.1l-0.2-0.3l-0.1-0.1l-0.1,0l-0.1,0l-0.4,0l-0.2-0.1l-0.1-0.2l-0.1-0.2
		l-0.1-0.4l0-0.3l0,0l0.2-0.5l0.1-0.5l-0.3-0.3l0,0l-0.1-0.7l-0.3-0.3l-0.4-0.3l-0.3-0.6l0-0.2l0-0.8l0-0.3l-0.1-0.2l-0.1-0.1
		l-1.9-3.9l-0.8-0.1l-0.6-0.4l-0.4-0.7l-0.1-1l-0.1-0.4l-0.2-0.6l-0.3-0.5l-0.4-0.2l-0.5-0.2l-0.2-0.4c-0.1-1.4-0.2-2.9-0.3-4.3
		c-6.5-6.1-13.1-12.1-19.5-18.3c-6.3-6.1-12.6-12.1-18.9-18.2c-6.3-6.1-12.7-12.3-19-18.4c-0.3-0.3-0.7-0.7-1-1
		c-6.5-6.1-13-12.2-19.5-18.3c-6.1-5.8-12.3-11.5-18.4-17.3c-1.4-1.4-2.9-2.7-4.3-4.1c-6.7-5.9-13.4-11.8-20.2-17.8
		c-6.7-5.9-13.4-11.8-20-17.8c-4.6-4.1-9.2-8.2-13.7-12.3c-0.1-8.9,0-17.7,0-26.6c0-8.2,0-16.5,0-24.7c0-9.2,0-18.4,0-27.6
		c0-9.1,0-18.2,0-27.2c0-2.4,0-4.7,0-7.1H277.5l0.3,0.7l0.1,0.4l0,0.4l-0.1,3.6l-0.2,0.7l-0.7,1.5l-0.8,1v0.2l1,0.4l1.4,1.1l1.2,1.3
		l0.1,1.1l0,0.6l0.4,0.9l0.3,0.9l0.2,0.4l0.1,0.2l0,1l0,0.4l0.2,0.4l0.2,0.3l0.3,0.2l0.3,0.2l-0.4,0.7l0.2,1.2l0.5,2.3l-0.1,1.1
		l-0.6,2.2l-0.3,2l-0.6,2.6l-0.5,1.3l-0.3,1.4l-0.5,0.6l-0.1,0.6l0,0.7l0.1,0.5l0,0.5l0.9,1.5l0.3,0.8l0,0.9l-1.7,5.6l-1.3,2
		l-0.3,0.8l0.5-0.3l0.5-0.7l1.3-2.3l0.2-0.1l1.2,0.1l0.3-0.1l0.3,0.2l0.1,0l-0.5,0.9l-0.5,0.3l-0.6,0.1l-0.8,0.3l-0.4,0.5l-0.7,1.5
		l-0.3,0.3l-0.1,1.5l-0.3,0.7l-0.7-0.3l-0.4-0.4l0-0.1l0.2-0.8l0.1-0.3l-0.9,1.2l-0.5,0.9l-0.4,1.2l0.1,0.1l0.1,0.2l0.1,0.2
		l-0.1,0.1l-0.1,0l-0.1,0.1l-0.1,0.1l-0.1,0.4l-0.8,1.5l-0.2,0.6c-0.2,0.7-0.4,1.3-0.5,2l-0.1,0.6l-0.1,0.6l-0.3,0.6l-0.2,0.6
		l0.1,0.5l0.4,0.8l0.9,2.3l0.2,0.9l-0.3,1.7l0.1,0.9l0.5,0.4l0.4,0.2l3.8,3.5l1.6,1l0.5,0.5l1.1,1.7l0.1,0.3l0.1,0.8l0.1,0.3
		l0.2,0.1l0.7,0.2l0.3,0.1l0.9,0.9l4.1,6.1l0.2,0.6l0.1,1.6l0.3,0.9l0.2,0.5l0.2,0.2l0.3,0.1l0.2,0.3l0.1,0.4l0.2,0.3l0.2,0.6
		l-0.1,2.6l0.8,2.2l-0.1,0.4l-0.4,0.4l-0.3,0.8l-0.3,1.6l-0.3,2.6l-0.4,1.3l0.5,1.3l0,0.7l0.3,0.3l0.2,0.5l0.3,1l0.3,1.7l0.3,0.8
		l0.5,0.3l1.1,2.5l0,0.4l0,1.2l0.1,0.4l0.3,0.7l0.1,0.4l-0.1,0.9l-0.3,0.5l-0.4,0.4l-0.4,0.6l0.1,1.1l0.8,1.2l2,2.2l1.5,1.2l0.3,0.4
		l0.3,0.5l0.6,0.6l1.1,0.8l0.9,0.9l4.9,6.5l1,0.9l3.5,1.8l0.9,0.9l0.7,2.2l0.7,0.7l0,1.8l0.3,0.6l0-0.2l0-0.8l1.7,1.1l0.5,0.6
		l0.1,0.3l0.1,0.7l0.1,0.3l0.8,1l1.4,2.2l1.2,1.4l0.5,0.8l0.2,0.9l-0.5-0.7l-0.7-0.7l-0.7-0.8l-0.3-1l-0.3-0.6l-1.5-1.6l-0.6-0.5
		l0.9,2.1l0.1,1l-1,3.6l-0.8,1.4l-0.2,0.6l0.8,0.1l0.2-0.1l0.2-0.1l0-0.1l0-0.1l0.3-0.5l0.2-0.3l0.2-0.3l0.4-0.3l-0.2-0.1l-0.1-0.1
		l-0.3-0.5l0.2-0.1l0.2-0.1l0.2-0.2l0.2-0.3l0.5,1.1l0.8,0.7l1.8,0.9l0.2,0.1l0.4,0.3l0.3,0.4l0.3,1l0.3,0.3l0.7,0.4l0.4,0.3l0.7,1
		l0.4,0.2l0.3-0.2l0.1-0.5l-0.1-0.6l1.6,1.3l0.9,0.9l1,0.7l0.4,0.4l0.5,0.4l0.7,0.2l0.6-0.1l0.4-0.4l0-0.6l-0.3-0.5l-0.2-0.4
		l0.4-0.4l0.2,0.6l0.4,0.2l0.3-0.2l-0.1-0.6l-0.3-0.5l-0.9-0.8l-0.4-0.5l0.2-0.1l0.2-0.3l0.2-0.1l-0.3-0.4l0-0.4l0.3-0.3l0.8-0.3
		l-0.3-0.3l-0.8-0.5l-0.2-0.7l0-2.1l-0.2-1l1.1,0l0.8-0.2l0.6-0.5l0.5-1l3.1,1.7l0.5,0.6l0.1,0.3l0.3,0.3l0.4,0.2l0.9,0.2l1.5,0.6
		l0.6,0l0.4-0.1l0.3-0.2l1-1l0.2-0.2l0.1-0.3l0.2-0.7l0.1-0.2l0.3-0.2l0.5-0.3l0.5-0.2l0.4,0l0.5,0.4l0,0.5l-0.5,1.2l1.3,0.4
		l1.4,0.1l-0.2,0.4l-0.1,0.2l-0.2,0.1l0.4,0.1l0.5,0l0.5-0.1l0.4-0.2l0-0.4l0.3-0.1l1,0.2l0.4,0l1.1-0.2l0.6-0.3l0.6-0.7l0.9-1.4
		h0.2l-0.1,0.9l-0.3,0.7l-0.4,0.5l-0.6,0.4l-0.3,0.1l-0.3,0.1l-0.3,0.1l-0.2,0.2l-0.1,0.3l0,0.3l0.1,0.2l0.2,0.1l1.3-0.2l0.7-0.3
		l0.3-0.4l0-0.5l0.1-0.3l0.4-0.5l0.2-0.1l0.2,0l0.2,0.1l0.2,0.1l0.1-0.1l0.2-0.3l0.1-0.1l0.7,0l0.5,0.1l0.4,0.2l2,1.7l0.5,0.2
		l0.3,0.3l0.5,0.6l0.4,0.6v0.3l-0.5-0.2l-0.6-0.5l-0.5-0.6l-0.3-0.5l-0.5,0.1l-0.7-0.3l-1-0.8l-0.1-0.2l-0.1-0.3L353,272l-0.3-0.2
		l-0.3,0l-0.2,0.2l-0.2,0.2l-0.2,0.1l-0.7,0l-0.3,0.1l-0.1,0.3l0,0.3l-0.1,0.4l-0.1,0.3l-0.1,0.1l-0.3,0l-0.3,0.1l-0.2,0.2l-0.1,0.2
		l0.1,0.1l0.9,0.3l-0.6,0.3l-0.6-0.1l-1.2-0.5l-3.5-0.4l-1.4-0.5l-3.5-0.4l-0.7,0.2l-1.3,0.9l-0.7,0.2l-0.6-0.2l-1.1-0.9l-0.6-0.2
		l-0.7,0.1l-0.4,0.3l-1.4,1.4l-0.3,0.1l-0.4,0l-0.3-0.1l-0.3-0.1l-0.2,0l-0.2,0.8l-0.3,0.6l-0.5,0.4l-0.5,0.1l0.8,1.2l1.1,0.5l1,0.7
		l0.3,1.7l-0.4,1.4l0,0.8l0.5,0.4l0.6,0.1l1.5,0.6l0.6,0.3l-1.2,0.5l0.2,0l0.4,0.2l-0.2,0.5l0.2,0.1l0.7-0.1l0.4,0.2l0.2,0.3
		l0.5,1.4l1.2,4.2l0.4,0.8l0.5,0.5h0.7l0.2,0.1l0.1,0.2l0.2,0.3l0,0.2l0,0.3l0,0.2l0.1,0.1l0.2,0l0.5,0.2l-0.4,0.4l-0.6,0.1
		l-0.6-0.1l-0.6-0.2l-0.3-0.4l-0.3-0.6l-0.3-0.5l-0.4,0l-0.3-0.2l-0.3-0.3l-0.3-0.2l-0.6,0.3l-0.2-0.3l-0.1-0.4l-0.1-0.3l-0.4-0.3
		l-0.3,0l-0.2-0.2l-0.1-0.6L334,291l-1,0.2l-0.3,0l-0.5-0.7l-0.2-0.2l-0.2-0.1l-0.5,0L331,290l-0.4-0.3l-0.1-0.3l0-0.3l-0.2-0.4
		l0-0.4l0.2-2.3l0.1-0.3l0.2-0.2l0.4-0.2l-0.5,0l-0.1-0.2l0-0.3l0-0.3l-0.4-1.5l-0.3-0.4l-0.6-0.1l-1.2,0l-0.6,0.1l-0.4,0.3
		l-0.5,1.4l0.2,1.6l0.4,1.6l0.1,1.4l-0.2,0.7l-0.5,1.1l-0.1,0.9l0.2,1.6l0.3,0.3l0.4,0.1l0.4,0l0.3,0.1l0.4,0.6l0.3,1.6l0.3,0.7
		l0.4,0.6l0.3,0.7l0.2,0.8l0.1,0.7l-0.1,1.6l-0.3,1.4l0,1.3l0.7,1.3l0.9,0.7l0.4,0.5l0.2,0.7l0.3,0.4l1.8,1.4l1.6,2.1l0.9,0.9
		l2.2,1.3l0.6,0.2l0.6,0.1l0.7-0.1l0.6-0.2l0.6,0l0.5,0.4l1-0.6l0.8-0.1l0.8,0.4l0.8,1l1.7,3.2l0.7,1l-0.6,2.2l0.3,0.1l0.2,0.1
		l0.2-0.1l0.3-0.1l0.1,0.3l0,0.2l0,0.2l-0.1,0.3l-0.7-0.2l-0.4,0l-0.2,0.4l-0.2,1.7l-0.2,0.7l-0.3,0.7l-0.4,0.5l-0.6,0.3l-0.5-0.3
		l-0.5-0.5l-0.6-0.2l-0.5,0.3l-0.4,0.6l-0.5,1.3l0.5,0.2l0.4,0.3l0.3,0.2l0.3,0.3l0.1,0.5l-0.1,0.3l-0.6,0.1l-0.1,0.3l0.1,0.6
		l0.7,1.7l0.3,1.5l0.1,1.5l0,0.3l0.4,1l0.1,0.4l0,0.3l0.1,0.2l0.2,0.3l0.3,0.2l0.3,0.1l0.2,0.2l0.1,0.5l0.1,0.4l0.3,0.4l0.4,0.3
		l0.9,0.2l2.8,1.9l0.8,0.9l1.5,2.4l0.5,1.3l0.3,0.6l0.4,0.3l0.7,0.1l0.6,0.2l0.5,0.4l0.4,0.5l0.3,0.6l0.3,0.7l0.2,0.8l0.1,0.8
		l0.2,0.7l0.4,0.5l1,0.9l0.7,1l0.4,0.5l1,0.5l0.3,0.8l0.3,1.5l1.1,2.2l0.6,0.1l1.7,0.9l1,0.2l0.8,0.9l0.9,1.7l1,1.2l0.8,1.1l0.8,0.8
		l0.8,0.6l2,0.3l0.7,0.3l0.3,0.4l0.2,0.5l0.3,1l0.2,0.4l0.6,0.8l0.2,0.5l-0.5,0.3l-0.4,0.1l-0.2-0.2l0.3-0.6l-0.2-0.2l-0.8,2.3
		l0,1.3l0.1,0.6l0.3,0.5l0.7,0.7l1.7,0.7l0.8,0.5l0.1-0.2l0.5-0.2l0.6-0.1l0.5,0.1l0.2,0.2l0.5,0.6l0.2,0.1l0.5,0.2l0.2,0.2l0.3,1.1
		l0.1,1.2l-0.1,1.4l-0.2,1.4l-0.9,2.2l-0.1,0.8l0.1,0.3l0.9,0.8l0.2,0.3l0.2,0.3l0.1,0.3l0.1,0.4l0,0.8l-0.4,1.4l-0.1,0.8l0.4,0.5
		l0.3,0.6l0.2,0.7l-0.1,0.9l-0.2,0.6l-0.2,0.5l-0.2,0.6l-0.3,1.1l-0.3,0.6l0.2,0.4l0.4,0.4l0.7,0.2l0.9,0.2l0.7,0l1.1,0.9l0.8,1.2
		l0.7,1.3l1.2,0l2.7-0.6l4.3-0.3l1.4,0.1l1.2,0.5l1.5-0.4l1.7,0.6l3,1.5l0.5-0.1l0.6-0.3l0.6-0.2l0.5,0.2l0.4,0.3l0.7,0.4l0.7,0.3
		l0.5,0.1l0.3-0.2l0.2-0.3l0.3-0.3l1.4-0.3l0.6,0.2l0.7,0l0.4,0l0.3,0.1l0.6,0.6l1.8,0.8l1,0.3l3.5,3.1l0.4,0.2l0.7,0l0.3,0.1
		l0.3,0.2l0.1,0.3l0,0.4l0.1,0.3l0.4,0.2l-0.2,0.4l0.1,0.5l0.3,0.5l0.3,0.4l0.1,0.2l0.1,0.4l0.1,0.2l0.1,0.1l0.3,0.1l0.2,0.1
		l1.3,1.2l0.8,0.4l0.9,0.1l-0.4-0.1l-0.3-0.1l-0.2,0l-0.1-0.3l1,0.2l2.4,1.5l2.9,0.8l1.4,0.2l1.1,0.5l0.5,0.5l0.5-0.3l0.6-0.2
		l4.2-0.5l0.4,0l0.3,0.1l0.2,0l0.3-0.1l0.4-0.3l0.7,0.2l0.9,0.6l0.9,0.8l1.1,1.7l0.7,1.6l0.6,1.3l0.2,0.6l0.1,0.5l0,1.1l-0.2,0.5
		l-0.4,0.5l-0.1,0.6l0.6,0.8l0.2,0.1l0.3,0.1l0.3,0l0.3-0.1l0.3-0.1l0.3,0.3l0.3,0.4l0.3,0.2l0.3,0.1l0.3,0.1l0.3,0.1l0.3-0.1
		l0.2-0.2l0-0.3l0-0.3l0.2-1l0.2-0.2l0.4-0.1l0.2-0.1l0.3-0.1l0.3-0.1l0.7,0.5l0.5,0l0.6-0.1l0.8,0.1l0.5,0.2l3.9,3.9l1,0.8l3.4,1.8
		l1.4,1.1l1.2,1.5l0.6,0.3l1.3,0.8l0.5,0.4l1.7,1.8l2.7,1.9l4.2,5.7l1.5,3.2l0.6,1.7l0.1,0.6l0.3,0.4l0.8,3.5l0,0.6l-0.3,0.7
		l-0.3,0.4l-0.2,0.4l0,0.7l0.7,1.1l0.1,0.5l0,0.7l-0.2,1.5l0.1,0.4l0.3,0.6l0.1,0.4l0.1-0.3l0.1-1.1l0.3-0.4l0.4-0.2h0.2l0.5,0.1
		l0.5,0.3l0.6,0.3l0.3,0.3l0.5,0.7l0.4,0.8l0.1,0.6l-0.2,0.3l-0.3-0.1l-0.2-0.5l-0.4-0.7l-0.3-0.6l-0.3-0.3l-0.1-0.5l-0.5-0.2h-0.4
		l-0.3,0.4l-0.2,0.3h0.8l0.6,0.4l0.5,0.8l0.5,1l0.1,0.9l-0.1,0.8l0.2,1l0.2,0.2h0c8.8-0.8,17.6-1.6,26.5-2.4
		c8.8-0.8,17.6-1.6,26.5-2.4c5.3-0.5,10.6-1,16-1.4l0,0l0.1-0.4l1.1-0.8l3,0.6l1.2-0.3l0.3-0.5l0-0.6l0-0.6l0.1-0.6l0.4-0.5l1.1-0.7
		l0.3-0.4l0.1-0.7l-0.5-2.2l0-0.4l0.1-0.3l0-0.3l-0.1-0.4l-0.8-1.2l-1-0.5l-2.6-0.2l-1.1-0.5l-0.9-1.2l0.1-1.2l0.4-1.3l0.1-1.5
		l-0.3-2l-0.2-0.5l-0.9-1l-0.1-0.5l0.3-1l0.3-0.4l0.1-0.3l-0.2-0.4l-0.2-0.3l-0.3-0.4l-0.1-0.4l0.3-0.2l1.4-0.1l0.7-0.2l0.5-0.4
		l1.1-2l0.3-0.8l0.3-0.4l0.6-0.6l0.4-0.5l0.1-0.2l0.1-0.5l-0.2-0.8v-0.5l0.3-0.2l0.1-0.2l0-0.4l0-0.7l0.1-0.8l0.3-0.5l0.3-0.4
		l0.2-0.5l-0.3-0.6l-0.1-0.4l0.2-0.2l0.1-0.2l0-0.4l0-0.4l-0.1-0.2l-0.4-0.4l-0.1-0.8l0-0.9l-0.1-0.5l0.5-0.4l0.2-0.3l0-0.3
		l-0.6-0.7l-0.2-0.4l-0.1-0.4l0.2-0.8l0.5-0.5l1.1-0.8l0.5-0.5l0.5-0.6l0.3-0.7l0.2-1.5l0.3-0.6l0.5-0.5l1-0.3l2.9-2.1l0.6-0.2
		l0.9-1.2l1-0.9l0.9-0.7l0.2-0.5L568,406.3z M446,437.6l-2.5-1l-0.5-0.1l-1.9-1.2l-0.8-0.2l-0.7,0.1l-0.2,0.5l0.3,0.4l0.7,0.4
		l0.7,0.2l0.6,0.1l0.8,0.2l0.3,0.5l0.1,1.4l0.2,0.8l0.3,0.6l0.4,0.4l0.6,0.1l0.3-0.1l0.7-0.3l0.3-0.1l0.4,0.1l1,0.6l0.6,0.1l0.5-0.2
		l0.1-0.5l-1.7-2.5L446,437.6z M444.7,456.2l-1.1-1.4l-1.4-1.1l-0.6-0.6l-0.4-0.9l-0.2-0.2l-0.2-0.3l-0.2-0.4l-0.1-0.3l-0.1-0.3
		l-0.3-0.1l-0.4-0.1l-0.4-0.2l0,0.8l0.4,0.9l0.5,0.8l0.5,1.3l1.1,1.5l0.5,1.2l0.6,0.5l0.7,0.4l0.5,0.2l0.3,0l0.2-0.1l0.2-0.1
		l0.2-0.1l0.8,0l0.4-0.1l0.3-0.2l-1.3-1L444.7,456.2z M312.6,286.3l-0.2,0.2l0.1,0.1l0,0.1l0-0.1l0,0l0,0.1L312.6,286.3L312.6,286.3
		L312.6,286.3z M328.9,280.2l0,0.1l-0.1,0l-0.1,0.2l0,0.3l0,0l0,0l0.2,0.1l0.2-0.1l0.2-0.4l0,0l0,0L328.9,280.2z M330.5,281.6
		l0.1,0.4l0,0h0l0.3,0.4l0-0.1l0,0l0,0l-0.2-0.1l0.1-0.6l0,0l0,0L330.5,281.6z"/>
</g>
<g display="none">
	<g display="inline">
		<g>
			<g>
				<text transform="matrix(1 0 0 1 644.1113 554.8325)" fill="#333333" font-family="'Roboto-Light'" font-size="8px">C</text>
				<text transform="matrix(1 0 0 1 648.831 554.8325)" fill="#333333" font-family="'Roboto-Light'" font-size="8px">o</text>
			</g>
			<g>
				<text transform="matrix(1 0 0 1 653.8535 554.8325)" fill="#333333" font-family="'Roboto-Light'" font-size="8px">p</text>
			</g>
			<g>
				<text transform="matrix(1 0 0 1 658.3438 554.8325)" fill="#333333" font-family="'Roboto-Light'" font-size="8px">y</text>
				<text transform="matrix(1 0 0 1 662.1837 554.8325)" fill="#333333" font-family="'Roboto-Light'" font-size="8px">r</text>
				<text transform="matrix(1 0 0 1 664.8716 554.8325)" fill="#333333" font-family="'Roboto-Light'" font-size="8px">i</text>
				<text transform="matrix(1 0 0 1 666.8155 554.8325)" fill="#333333" font-family="'Roboto-Light'" font-size="8px">g</text>
				<text transform="matrix(1 0 0 1 671.3594 554.8325)" fill="#333333" font-family="'Roboto-Light'" font-size="8px">h</text>
				<text transform="matrix(1 0 0 1 675.8716 554.8325)" fill="#333333" font-family="'Roboto-Light'" font-size="8px">t</text>
				<text transform="matrix(1 0 0 1 678.5914 554.8325)" fill="#333333" font-family="'Roboto-Light'" font-size="8px"> </text>
				<text transform="matrix(1 0 0 1 680.4125 554.8325)" fill="#333333" font-family="'Roboto-Light'" font-size="8px">©</text>
				<text transform="matrix(1 0 0 1 685.908 554.8325)" fill="#333333" font-family="'Roboto-Light'" font-size="8px"> </text>
			</g>
			<g>
				<text transform="matrix(1 0 0 1 689.291 554.8325)" fill="#333333" font-family="'Roboto-Light'" font-size="8px">F</text>
			</g>
			<g>
				<text transform="matrix(1 0 0 1 693.6758 554.8325)" fill="#333333" font-family="'Roboto-Light'" font-size="8px">r</text>
			</g>
			<g>
				<text transform="matrix(1 0 0 1 696.4121 554.8325)" fill="#333333" font-family="'Roboto-Light'" font-size="8px">e</text>
				<text transform="matrix(1 0 0 1 700.5 554.8325)" fill="#333333" font-family="'Roboto-Light'" font-size="8px">e</text>
				<text transform="matrix(1 0 0 1 704.5879 554.8325)" fill="#333333" font-family="'Roboto-Light'" font-size="8px"> </text>
			</g>
			<g>
				<text transform="matrix(1 0 0 1 706.8311 554.8325)" fill="#333333" font-family="'Roboto-Light'" font-size="8px">V</text>
			</g>
			<g>
				<text transform="matrix(1 0 0 1 711.6455 554.8325)" fill="#333333" font-family="'Roboto-Light'" font-size="8px">e</text>
				<text transform="matrix(1 0 0 1 715.7334 554.8325)" fill="#333333" font-family="'Roboto-Light'" font-size="8px">c</text>
				<text transform="matrix(1 0 0 1 719.3975 554.8325)" fill="#333333" font-family="'Roboto-Light'" font-size="8px">t</text>
				<text transform="matrix(1 0 0 1 722.1255 554.8325)" fill="#333333" font-family="'Roboto-Light'" font-size="8px">o</text>
				<text transform="matrix(1 0 0 1 726.5972 554.8325)" fill="#333333" font-family="'Roboto-Light'" font-size="8px">r</text>
				<text transform="matrix(1 0 0 1 729.2935 554.8325)" fill="#333333" font-family="'Roboto-Light'" font-size="8px"> </text>
				<text transform="matrix(1 0 0 1 731.0693 554.8325)" fill="#333333" font-family="'Roboto-Light'" font-size="8px">M</text>
				<text transform="matrix(1 0 0 1 737.5811 554.8325)" fill="#333333" font-family="'Roboto-Light'" font-size="8px">a</text>
				<text transform="matrix(1 0 0 1 741.5171 554.8325)" fill="#333333" font-family="'Roboto-Light'" font-size="8px">p</text>
				<text transform="matrix(1 0 0 1 746.1489 554.8325)" fill="#333333" font-family="'Roboto-Light'" font-size="8px">s</text>
				<text transform="matrix(1 0 0 1 749.397 554.8325)" fill="#333333" font-family="'Roboto-Light'" font-size="8px">.</text>
				<text transform="matrix(1 0 0 1 751.1328 554.8325)" fill="#333333" font-family="'Roboto-Light'" font-size="8px">c</text>
				<text transform="matrix(1 0 0 1 754.7969 554.8325)" fill="#333333" font-family="'Roboto-Light'" font-size="8px">o</text>
				<text transform="matrix(1 0 0 1 759.2686 554.8325)" fill="#333333" font-family="'Roboto-Light'" font-size="8px">m</text>
			</g>
		</g>
	</g>
</g>
</svg>
