<?xml version="1.0" encoding="utf-8"?>
<!-- Generator: Adobe Illustrator 19.1.0, SVG Export Plug-In . SVG Version: 6.00 Build 0)  -->
<svg version="1.1" id="Layer_1" xmlns="http://www.w3.org/2000/svg" xmlns:xlink="http://www.w3.org/1999/xlink" x="0px" y="0px"
	 viewBox="0 0 300 300" style="enable-background:new 0 0 300 300;" xml:space="preserve">
<style type="text/css">
	.st0{fill:#FFFFFF;}
</style>
<g>
	<path class="st0" d="M61,115.6c-2-2.4-5-3.9-8.2-3.9c-6.9,0-10.9,6.4-10.9,12.7c0,6.3,4.1,12.4,10.7,12.4c3.1,0,6.1-1.6,8.2-3.9
		v8.6c-2.7,1.2-5.4,2.2-8.3,2.2c-10.3,0-18.1-9-18.1-19c0-10.5,7.3-19.7,18.2-19.7c2.9,0,5.7,0.8,8.2,2.2v8.7H61V115.6z"/>
	<path class="st0" d="M89.5,143.6c-11.3,0-18.2-8.6-18.2-19.5s7.2-19.3,18.2-19.3s18.2,8.4,18.2,19.3
		C107.8,135,100.8,143.6,89.5,143.6z M89.5,111.9c-6.8,0-10.7,6-10.7,12c0,5.7,2.9,12.7,10.7,12.7c8,0,10.7-6.9,10.7-12.7
		C100.3,117.9,96.3,111.9,89.5,111.9z"/>
	<path class="st0" d="M118.6,105.8h10.2c10.6,0,17.8,8,17.8,18.5c0,10.3-7.3,18.4-17.8,18.4h-10.2
		C118.6,142.7,118.6,105.8,118.6,105.8z M125.7,136.4h1.2c8.8,0,12.2-4.9,12.2-12.1c0-8-4.1-12.1-12.2-12.1h-1.2V136.4z"/>
	<polygon class="st0" points="164.6,112 164.6,120.1 176.1,120.1 176.1,126.3 164.6,126.3 164.6,136.4 176.6,136.4 176.6,142.7 
		157.6,142.7 157.6,105.8 176.6,105.8 176.6,112 	"/>
	<path class="st0" d="M41.5,185.4l-3.7,8.2h-4.4L49,159.4l15.6,34.1h-4.4l-3.7-8.2L41.5,185.4L41.5,185.4z M49,168.4l-5.9,13.2h11.6
		L49,168.4z"/>
	<polygon class="st0" points="79.5,171.9 79.3,171.9 75.5,193.5 71.3,193.5 78,159.4 89.3,185.2 100.4,159.4 107.1,193.5 103,193.5 
		99,171.9 99,171.9 89.3,194.2 	"/>
	<polygon class="st0" points="117.3,160.7 134.8,160.7 134.8,164.6 121.4,164.6 121.4,173.7 134.6,173.7 134.6,177.3 121.4,177.3 
		121.4,189.7 134.8,189.7 134.8,193.5 117.3,193.5 	"/>
	<path class="st0" d="M166.8,193.5h-4.9l-9.7-13.9h-1.6v13.9h-4.1v-32.8h4.9c2.9,0,6,0,8.6,1.5c2.7,1.6,4.4,4.6,4.4,7.8
		c0,4.6-3.1,8.6-7.9,9.1L166.8,193.5z M150.5,176.3h1.4c4.2,0,8.7-0.8,8.7-6s-4.9-5.9-8.8-5.9h-1.1v11.8L150.5,176.3L150.5,176.3z"
		/>
	<rect x="176.5" y="160.7" class="st0" width="4.1" height="32.8"/>
	<path class="st0" d="M217,167c-2.3-2-5.6-3.3-8.6-3.3c-7.3,0-12.9,6.1-12.9,13.3s5.6,13.3,12.8,13.3c3.3,0,6.3-1.2,8.7-3.4v4.8
		c-2.4,1.5-5.7,2.3-8.6,2.3c-9.4,0-17-7.5-17-16.9c0-9.7,7.8-17.3,17.4-17.3c2.9,0,5.7,0.7,8.3,2.2L217,167L217,167L217,167z"/>
	<path class="st0" d="M232.9,185.4l-3.7,8.2h-4.4l15.6-34.1l15.6,34.1h-4.5l-3.7-8.2L232.9,185.4L232.9,185.4z M240.4,168.4
		l-5.9,13.2h11.7L240.4,168.4z"/>
	<path class="st0" d="M206.4,128.5c-1.1,1.8-2.3,3.8-3.4,5.9s-2.3,4.2-3.5,6.3c-1.2,2-2.6,4.1-4.1,6s-3,3.5-4.8,5s-3.7,2.6-5.7,3.5
		c-2,0.8-4.5,1.4-7.1,1.4c-0.8,0-1.8-0.1-2.7-0.3c-1-0.1-1.9-0.5-2.7-1c-0.8-0.4-1.5-1-2-1.8c-0.5-0.7-0.8-1.6-0.8-2.7
		c0-0.8,0.1-1.6,0.5-2.2c0.4-0.7,0.8-1.2,1.5-1.6c0.5-0.4,1.2-0.8,2-1c0.8-0.3,1.5-0.4,2.3-0.4c0.4,0,0.8,0,1.1,0s0.7,0.1,1,0.1v0.4
		c-1.4,0.1-2.4,0.5-3.4,1.5c-0.8,1-1.2,2-1.2,3.4c0,1.5,0.4,2.7,1.2,3.5s2.2,1.4,4.1,1.4c1.8,0,3.4-0.4,4.9-1.4s3-2.2,4.5-3.7
		s2.9-3.3,4.1-5.2c1.2-1.9,2.6-3.9,3.7-6c1.2-2,2.3-4.1,3.4-6c1.1-1.9,2-3.7,3-5.2H198l0.4-0.8h4.2c0.8-1.5,1.8-3,3-4.8
		c1.1-1.8,2.4-3.4,3.8-4.9c1.5-1.5,3-2.7,4.8-3.8c1.8-1,3.5-1.5,5.4-1.5c0.5,0,1.2,0.1,1.8,0.3c0.5,0.1,1.1,0.4,1.5,0.7
		c0.4,0.3,0.8,0.7,1.1,1.1s0.4,1,0.4,1.6c0,1.1-0.4,1.8-1.1,2.3c-0.8,0.5-1.6,0.8-2.6,0.8c-0.3,0-0.5,0-0.8-0.1
		c0.3-0.5,0.5-1.1,0.7-1.6s0.3-1.2,0.3-1.9c0-0.8-0.1-1.5-0.5-1.9s-0.8-0.7-1.4-0.7c-0.7,0-1.5,0.3-2.3,0.8s-1.6,1.4-2.4,2.2
		c-0.8,1-1.5,1.9-2.3,3s-1.5,2.2-2,3.3c-0.7,1.1-1.2,2-1.8,3c-0.5,1-1,1.6-1.2,2.2h11l-0.5,0.8h-11v0H206.4z"/>
	<path class="st0" d="M234.4,131.6c-0.5,0.8-1.2,1.5-2,2s-1.6,1-2.6,1c-0.7,0-1.2-0.1-1.8-0.4s-1-0.7-1.4-1.2
		c-0.4,1.5-1,2.9-1.8,4.1c-0.8,1.2-1.8,2.4-2.9,3.4c-1.1,1-2.4,1.8-3.8,2.3c-1.4,0.5-2.9,0.8-4.4,0.8c-1.6,0-2.9-0.4-3.8-1.4
		c-1-1-1.5-2.2-1.5-3.8c0-1.5,0.4-3,1.2-4.4s1.8-2.6,3-3.7c1.2-1.1,2.6-1.9,4.1-2.6c1.5-0.7,3-1,4.5-1s2.9,0.4,3.7,1.2
		c1,0.8,1.5,1.9,1.6,3c0.1,0.8,0.4,1.6,1,2c0.5,0.5,1.2,0.8,2,0.8s1.5-0.3,2.2-0.7s1.5-1.2,2.2-2L234.4,131.6z M216.5,142.4
		c0.7-0.5,1.4-1.1,2-1.9c0.7-0.8,1.2-1.6,1.9-2.6c0.5-1,1.1-1.9,1.5-3c0.4-1,0.7-1.9,1-2.9s0.4-1.6,0.4-2.3s-0.1-1.2-0.4-1.6
		c-0.3-0.4-0.8-0.5-1.5-0.5s-1.5,0.3-2.2,0.7c-0.7,0.5-1.4,1.1-2,1.9c-0.7,0.8-1.2,1.6-1.9,2.6c-0.5,1-1.1,1.9-1.5,3
		c-0.4,1-0.7,1.9-1,2.9s-0.4,1.6-0.4,2.3s0.1,1.2,0.4,1.6c0.3,0.4,0.8,0.5,1.5,0.5C215,143.1,215.8,142.9,216.5,142.4z"/>
	<path class="st0" d="M225.9,142.9c1.5-2.6,3-5,4.5-7.6c1.5-2.4,3-5,4.5-7.6l4.9-0.1l-5.7,8l0.1,0.1c1.1-1.4,2-2.4,3-3.3
		c0.8-0.8,1.6-1.5,2.2-2c0.7-0.5,1.2-1,1.6-1.2s0.8-0.5,1-0.7c0.3-0.3,0.7-0.5,1-0.8c0.3-0.1,0.5-0.3,1-0.4c0.4-0.1,0.8-0.1,1.4-0.1
		c0.5,0,1.2,0,2-0.1c-0.5,0.8-1.1,1.6-1.5,2.4s-0.7,1.8-0.7,2.7c0,1.2,0.7,1.9,1.9,1.9c0.4,0,0.8-0.1,1.2-0.3
		c0.4-0.1,0.8-0.4,1.1-0.7c0.4-0.3,0.7-0.5,1-0.8s0.5-0.5,0.8-0.8l0.1,0.3c-0.8,1-1.8,1.8-2.9,2.4c-1.1,0.7-2.3,1-3.5,1
		s-2-0.3-2.7-1c-0.7-0.5-1-1.5-1-2.7c0-0.8,0.3-1.5,0.7-2.2l-0.1-0.1c-1.2,0.8-2.3,1.8-3.5,2.9c-1.1,1.1-2.2,2.2-3.1,3.4
		c-1,1.2-1.8,2.4-2.6,3.7c-0.8,1.2-1.5,2.4-2.2,3.7L225.9,142.9z"/>
</g>
</svg>
